<?xml version="1.0" standalone="no"?>
<!DOCTYPE svg PUBLIC "-//W3C//DTD SVG 20010904//EN"
 "http://www.w3.org/TR/2001/REC-SVG-20010904/DTD/svg10.dtd">
<svg version="1.0" xmlns="http://www.w3.org/2000/svg"
 width="60.000000pt" height="60.000000pt" viewBox="0 0 60.000000 60.000000"
 preserveAspectRatio="xMidYMid meet">

<g transform="translate(0.000000,60.000000) scale(0.100000,-0.100000)"
fill="#000000" stroke="none">
<path d="M40 440 c-18 -18 -20 -33 -20 -130 0 -159 -15 -150 260 -150 275 0
260 -9 260 150 0 159 15 150 -260 150 -207 0 -221 -1 -240 -20z m455 -130 l0
-105 -215 0 -215 0 -3 94 c-1 52 0 101 2 108 5 11 47 13 218 11 l213 -3 0
-105z"/>
<path d="M100 310 l0 -70 120 0 120 0 0 70 0 70 -120 0 -120 0 0 -70z"/>
<path d="M560 310 c0 -44 3 -51 18 -48 13 3 17 13 17 48 0 35 -4 45 -17 48
-15 3 -18 -4 -18 -48z"/>
</g>
</svg>
