<?xml version="1.0" standalone="no"?>
<!DOCTYPE svg PUBLIC "-//W3C//DTD SVG 20010904//EN"
 "http://www.w3.org/TR/2001/REC-SVG-20010904/DTD/svg10.dtd">
<svg version="1.0" xmlns="http://www.w3.org/2000/svg"
 width="100.000000pt" height="100.000000pt" viewBox="0 0 100.000000 100.000000"
 preserveAspectRatio="xMidYMid meet">

<g transform="translate(0.000000,100.000000) scale(0.100000,-0.100000)"
fill="#000000" stroke="none">
<path d="M386 944 c-225 -54 -376 -286 -338 -517 62 -367 512 -513 773 -252
329 330 18 879 -435 769z m219 -39 c312 -81 418 -473 191 -701 -241 -240 -651
-107 -709 230 -50 295 226 546 518 471z"/>
<path d="M340 660 c-18 -18 -20 -33 -20 -160 0 -187 -7 -180 180 -180 187 0
180 -7 180 180 0 187 7 180 -180 180 -127 0 -142 -2 -160 -20z m295 -160 l0
-135 -135 0 -135 0 -3 124 c-1 69 0 131 2 138 4 11 35 13 138 11 l133 -3 0
-135z"/>
</g>
</svg>
