<?xml version="1.0" standalone="no"?>
<!DOCTYPE svg PUBLIC "-//W3C//DTD SVG 20010904//EN"
 "http://www.w3.org/TR/2001/REC-SVG-20010904/DTD/svg10.dtd">
<svg version="1.0" xmlns="http://www.w3.org/2000/svg"
 width="52.000000pt" height="52.000000pt" viewBox="0 0 52.000000 52.000000"
 preserveAspectRatio="xMidYMid meet">

<g transform="translate(0.000000,52.000000) scale(0.100000,-0.100000)"
fill="#000000" stroke="none">
<path d="M165 447 c-82 -28 -145 -73 -145 -105 0 -33 24 -32 76 4 29 20 72 39
107 46 77 16 155 0 221 -46 50 -35 76 -37 76 -7 0 25 -48 67 -105 92 -61 27
-173 35 -230 16z"/>
<path d="M182 348 c-48 -16 -105 -69 -97 -90 10 -24 27 -22 71 7 66 45 142 45
208 0 44 -29 61 -31 71 -7 5 12 -4 26 -29 48 -58 50 -146 67 -224 42z"/>
<path d="M192 240 c-39 -24 -49 -45 -32 -65 11 -13 16 -13 45 5 18 11 43 20
55 20 12 0 37 -9 55 -20 29 -18 34 -18 45 -5 17 20 7 41 -32 65 -42 25 -94 25
-136 0z"/>
<path d="M236 144 c-9 -8 -16 -19 -16 -24 0 -11 29 -40 40 -40 11 0 40 29 40
40 0 11 -29 40 -40 40 -5 0 -16 -7 -24 -16z"/>
</g>
</svg>
