<?xml version="1.0" standalone="no"?>
<!DOCTYPE svg PUBLIC "-//W3C//DTD SVG 20010904//EN"
 "http://www.w3.org/TR/2001/REC-SVG-20010904/DTD/svg10.dtd">
<svg version="1.0" xmlns="http://www.w3.org/2000/svg"
 width="26.000000pt" height="26.000000pt" viewBox="0 0 26.000000 26.000000"
 preserveAspectRatio="xMidYMid meet">

<g transform="translate(0.000000,26.000000) scale(0.100000,-0.100000)"
fill="#000000" stroke="none">
<path d="M65 216 c-34 -15 -61 -43 -51 -53 3 -4 24 3 45 15 49 28 93 28 142 0
42 -23 61 -19 38 8 -33 41 -117 55 -174 30z"/>
<path d="M85 171 c-26 -11 -50 -39 -41 -48 4 -4 20 1 35 10 37 22 65 22 102 0
35 -21 50 -10 22 18 -22 23 -87 34 -118 20z"/>
<path d="M86 111 c-22 -24 -5 -37 24 -19 16 10 24 10 40 0 29 -18 46 -5 24 19
-22 24 -66 24 -88 0z"/>
<path d="M114 69 c-10 -17 13 -36 27 -22 12 12 4 33 -11 33 -5 0 -12 -5 -16
-11z"/>
</g>
</svg>
