<?xml version="1.0" standalone="no"?>
<!DOCTYPE svg PUBLIC "-//W3C//DTD SVG 20010904//EN"
 "http://www.w3.org/TR/2001/REC-SVG-20010904/DTD/svg10.dtd">
<svg version="1.0" xmlns="http://www.w3.org/2000/svg"
 width="96.000000pt" height="96.000000pt" viewBox="0 0 96.000000 96.000000"
 preserveAspectRatio="xMidYMid meet">

<g transform="translate(0.000000,96.000000) scale(0.100000,-0.100000)"
fill="#000000" stroke="none">
<path d="M771 806 c-8 -9 -11 -105 -9 -331 3 -290 5 -319 21 -329 12 -8 22 -8
35 0 15 10 17 39 20 329 2 328 1 345 -38 345 -10 0 -23 -6 -29 -14z"/>
<path d="M611 686 c-8 -9 -11 -89 -9 -271 3 -233 5 -259 21 -269 12 -8 22 -8
35 0 15 10 17 36 20 269 2 182 -1 262 -9 271 -15 18 -43 18 -58 0z"/>
<path d="M451 566 c-8 -9 -11 -74 -9 -211 3 -176 5 -199 21 -209 12 -8 22 -8
35 0 15 10 17 33 20 209 2 137 -1 202 -9 211 -15 18 -43 18 -58 0z"/>
<path d="M291 446 c-8 -9 -11 -58 -9 -151 3 -119 5 -139 21 -149 12 -8 22 -8
35 0 15 10 17 30 20 149 3 142 -3 165 -38 165 -10 0 -23 -6 -29 -14z"/>
<path d="M131 326 c-8 -9 -11 -43 -9 -92 2 -60 7 -79 21 -88 12 -8 22 -8 35 0
13 9 18 28 20 88 3 81 -6 106 -38 106 -10 0 -23 -6 -29 -14z"/>
</g>
</svg>
